<svg width="30" height="23" viewBox="0 0 30 23" fill="none" xmlns="http://www.w3.org/2000/svg">
<path d="M10.9988 14.9569C11.8277 14.9569 12.4996 14.285 12.4996 13.4561C12.4996 12.6272 11.8277 11.9553 10.9988 11.9553C10.17 11.9553 9.49802 12.6272 9.49802 13.4561C9.49802 14.285 10.17 14.9569 10.9988 14.9569Z" fill="url(#paint0_linear_38_302)"/>
<path d="M19.0032 14.9569C19.832 14.9569 20.504 14.285 20.504 13.4561C20.504 12.6272 19.832 11.9553 19.0032 11.9553C18.1743 11.9553 17.5024 12.6272 17.5024 13.4561C17.5024 14.285 18.1743 14.9569 19.0032 14.9569Z" fill="url(#paint1_linear_38_302)"/>
<path d="M29.9166 16.6841L25.678 2.53144C25.5079 1.94362 25.0677 1.46461 24.4986 1.24449C23.253 0.734215 21.956 0.331497 20.6428 0.0475932C19.641 -0.172526 18.6367 0.394031 18.3028 1.37331L17.5749 3.577C16.7219 3.48696 15.8627 3.44318 15.001 3.45069C14.1393 3.44318 13.2801 3.48571 12.4271 3.577L11.6955 1.36456C11.3653 0.394031 10.3597 -0.172526 9.36045 0.0463426C8.04598 0.331497 6.74778 0.734215 5.50211 1.24449C4.9318 1.46461 4.49281 1.94362 4.32272 2.53144L0.0841705 16.6841C-0.140951 17.4345 0.0941759 18.2537 0.685746 18.7765C2.74561 20.5687 5.53087 21.9319 8.74136 22.7186C8.90395 22.7599 9.06654 22.7799 9.22787 22.7799C9.97078 22.7799 10.6724 22.3572 11.0076 21.6643L12.197 19.3055C13.125 19.4131 14.0605 19.4656 14.9998 19.4594C15.0548 19.4594 15.1086 19.4594 15.1623 19.4594C16.0466 19.4594 16.9283 19.4081 17.8025 19.3068L18.9907 21.6643C19.3258 22.3572 20.0275 22.7799 20.7704 22.7799C20.9317 22.7799 21.0956 22.7599 21.2569 22.7186C24.4661 21.9319 27.2514 20.5687 29.3175 18.7715C29.9053 18.2537 30.1392 17.4333 29.9141 16.6841H29.9166ZM20.7854 20.7751V20.7726L19.8749 18.9691C20.5915 18.8178 21.3019 18.6327 22.0035 18.4125C22.5313 18.2475 22.824 17.6859 22.6589 17.1581C22.4938 16.6303 21.9323 16.3364 21.4045 16.5028C20.3714 16.8267 19.3171 17.0693 18.2515 17.2281C18.234 17.2306 18.2165 17.2319 18.199 17.2357C17.1447 17.3907 16.0778 17.4658 15.0073 17.457H14.9922C13.9179 17.4645 12.8486 17.3895 11.7918 17.2332C11.7855 17.2332 11.778 17.2319 11.7718 17.2306C10.6974 17.0718 9.63685 16.8279 8.59503 16.5015C8.06725 16.3364 7.50569 16.6291 7.3406 17.1569C7.17551 17.6846 7.46942 18.2462 7.99596 18.4113C8.69759 18.6314 9.40797 18.8165 10.1246 18.9678L9.21537 20.7713V20.7738C6.3138 20.0622 3.81869 18.849 2.00396 17.2707C2.00021 17.2669 1.99896 17.2619 2.00021 17.2569L6.24001 3.1055C6.24001 3.1055 6.24751 3.103 6.25126 3.10175C7.39188 2.63399 8.58127 2.26379 9.78818 2.0024H9.79193C9.79693 2.0024 9.80068 2.0049 9.80068 2.0024L10.4223 3.88217C9.60558 4.04351 8.79764 4.24862 8.00096 4.49875C7.47317 4.66384 7.18051 5.2254 7.3456 5.75318C7.51069 6.28097 8.07225 6.57363 8.60003 6.40854C9.6481 6.07961 10.7162 5.83573 11.798 5.67689C11.8543 5.67314 11.9093 5.66689 11.9656 5.65313C12.9674 5.51305 13.9804 5.44677 14.9972 5.45427H15.0123C16.0291 5.44677 17.0409 5.51305 18.0414 5.65313C18.1002 5.66689 18.1602 5.67439 18.219 5.67814C19.2971 5.83823 20.3627 6.08211 21.4095 6.40979C21.5095 6.44106 21.6096 6.45606 21.7084 6.45606C22.1336 6.45606 22.5288 6.18217 22.6627 5.75443C22.8277 5.22665 22.5338 4.66509 22.0073 4.5C21.2094 4.24987 20.4014 4.04476 19.5847 3.88467L20.2038 2.01366C20.2038 2.01366 20.2126 2.00365 20.2201 2.00615C21.4245 2.26755 22.6139 2.6365 23.7545 3.10425C23.7582 3.1055 23.762 3.10675 23.7645 3.108L28.003 17.2607L28.0043 17.2694C26.1846 18.8528 23.6895 20.0659 20.7879 20.7776L20.7854 20.7751Z" fill="url(#paint2_linear_38_302)"/>
<defs>
<linearGradient id="paint0_linear_38_302" x1="89.1225" y1="17.0331" x2="87.2454" y2="-6.215" gradientUnits="userSpaceOnUse">
<stop stop-color="#2AFC61"/>
<stop offset="1" stop-color="#AE69EB"/>
</linearGradient>
<linearGradient id="paint1_linear_38_302" x1="89.1225" y1="17.0331" x2="87.2454" y2="-6.215" gradientUnits="userSpaceOnUse">
<stop stop-color="#2AFC61"/>
<stop offset="1" stop-color="#AE69EB"/>
</linearGradient>
<linearGradient id="paint2_linear_38_302" x1="89.1225" y1="17.0331" x2="87.2454" y2="-6.215" gradientUnits="userSpaceOnUse">
<stop stop-color="#2AFC61"/>
<stop offset="1" stop-color="#AE69EB"/>
</linearGradient>
</defs>
</svg>
