<svg width="35" height="27" viewBox="0 0 35 27" fill="none" xmlns="http://www.w3.org/2000/svg">
<g opacity="0.25">
<path d="M12.9988 16.9569C13.8277 16.9569 14.4996 16.285 14.4996 15.4561C14.4996 14.6272 13.8277 13.9553 12.9988 13.9553C12.17 13.9553 11.498 14.6272 11.498 15.4561C11.498 16.285 12.17 16.9569 12.9988 16.9569Z" fill="#02FE57"/>
<path d="M21.0032 16.9569C21.832 16.9569 22.504 16.285 22.504 15.4561C22.504 14.6272 21.832 13.9553 21.0032 13.9553C20.1743 13.9553 19.5024 14.6272 19.5024 15.4561C19.5024 16.285 20.1743 16.9569 21.0032 16.9569Z" fill="#02FE57"/>
<path d="M31.9166 18.6841L27.678 4.53144C27.5079 3.94362 27.0677 3.46461 26.4986 3.24449C25.253 2.73422 23.956 2.3315 22.6428 2.04759C21.641 1.82747 20.6367 2.39403 20.3028 3.37331L19.5749 5.577C18.7219 5.48696 17.8627 5.44318 17.001 5.45069C16.1393 5.44318 15.2801 5.48571 14.4271 5.577L13.6955 3.36456C13.3653 2.39403 12.3597 1.82747 11.3604 2.04634C10.046 2.3315 8.74778 2.73422 7.50211 3.24449C6.9318 3.46461 6.49281 3.94362 6.32272 4.53144L2.08417 18.6841C1.85905 19.4345 2.09418 20.2537 2.68575 20.7765C4.74561 22.5687 7.53087 23.9319 10.7414 24.7186C10.9039 24.7599 11.0665 24.7799 11.2279 24.7799C11.9708 24.7799 12.6724 24.3572 13.0076 23.6643L14.197 21.3055C15.125 21.4131 16.0605 21.4656 16.9998 21.4594C17.0548 21.4594 17.1086 21.4594 17.1623 21.4594C18.0466 21.4594 18.9283 21.4081 19.8025 21.3068L20.9907 23.6643C21.3258 24.3572 22.0275 24.7799 22.7704 24.7799C22.9317 24.7799 23.0956 24.7599 23.2569 24.7186C26.4661 23.9319 29.2514 22.5687 31.3175 20.7715C31.9053 20.2537 32.1392 19.4333 31.9141 18.6841H31.9166ZM22.7854 22.7751V22.7726L21.8749 20.9691C22.5915 20.8178 23.3019 20.6327 24.0035 20.4125C24.5313 20.2475 24.824 19.6859 24.6589 19.1581C24.4938 18.6303 23.9323 18.3364 23.4045 18.5028C22.3714 18.8267 21.3171 19.0693 20.2515 19.2281C20.234 19.2306 20.2165 19.2319 20.199 19.2357C19.1447 19.3907 18.0778 19.4658 17.0073 19.457H16.9922C15.9179 19.4645 14.8486 19.3895 13.7918 19.2332C13.7855 19.2332 13.778 19.2319 13.7718 19.2306C12.6974 19.0718 11.6368 18.8279 10.595 18.5015C10.0672 18.3364 9.50569 18.6291 9.3406 19.1569C9.17551 19.6846 9.46942 20.2462 9.99596 20.4113C10.6976 20.6314 11.408 20.8165 12.1246 20.9678L11.2154 22.7713V22.7738C8.3138 22.0622 5.81869 20.849 4.00396 19.2707C4.00021 19.2669 3.99896 19.2619 4.00021 19.2569L8.24001 5.1055C8.24001 5.1055 8.24751 5.103 8.25126 5.10175C9.39188 4.63399 10.5813 4.26379 11.7882 4.0024H11.7919C11.7969 4.0024 11.8007 4.0049 11.8007 4.0024L12.4223 5.88217C11.6056 6.04351 10.7976 6.24862 10.001 6.49875C9.47317 6.66384 9.18051 7.2254 9.3456 7.75318C9.51069 8.28097 10.0722 8.57363 10.6 8.40854C11.6481 8.07961 12.7162 7.83573 13.798 7.67689C13.8543 7.67314 13.9093 7.66689 13.9656 7.65313C14.9674 7.51305 15.9804 7.44677 16.9972 7.45427H17.0123C18.0291 7.44677 19.0409 7.51305 20.0414 7.65313C20.1002 7.66689 20.1602 7.67439 20.219 7.67814C21.2971 7.83823 22.3627 8.08211 23.4095 8.40979C23.5095 8.44106 23.6096 8.45606 23.7084 8.45606C24.1336 8.45606 24.5288 8.18217 24.6627 7.75443C24.8277 7.22665 24.5338 6.66509 24.0073 6.5C23.2094 6.24987 22.4014 6.04476 21.5847 5.88467L22.2038 4.01366C22.2038 4.01366 22.2126 4.00365 22.2201 4.00615C23.4245 4.26755 24.6139 4.6365 25.7545 5.10425C25.7582 5.1055 25.762 5.10675 25.7645 5.108L30.003 19.2607L30.0043 19.2694C28.1846 20.8528 25.6895 22.0659 22.7879 22.7776L22.7854 22.7751Z" fill="#02FE57"/>
<path d="M12.9988 16.9569C13.8277 16.9569 14.4996 16.285 14.4996 15.4561C14.4996 14.6272 13.8277 13.9553 12.9988 13.9553C12.17 13.9553 11.498 14.6272 11.498 15.4561C11.498 16.285 12.17 16.9569 12.9988 16.9569Z" stroke="#02FE57" stroke-width="4"/>
<path d="M21.0032 16.9569C21.832 16.9569 22.504 16.285 22.504 15.4561C22.504 14.6272 21.832 13.9553 21.0032 13.9553C20.1743 13.9553 19.5024 14.6272 19.5024 15.4561C19.5024 16.285 20.1743 16.9569 21.0032 16.9569Z" stroke="#02FE57" stroke-width="4"/>
<path d="M31.9166 18.6841L27.678 4.53144C27.5079 3.94362 27.0677 3.46461 26.4986 3.24449C25.253 2.73422 23.956 2.3315 22.6428 2.04759C21.641 1.82747 20.6367 2.39403 20.3028 3.37331L19.5749 5.577C18.7219 5.48696 17.8627 5.44318 17.001 5.45069C16.1393 5.44318 15.2801 5.48571 14.4271 5.577L13.6955 3.36456C13.3653 2.39403 12.3597 1.82747 11.3604 2.04634C10.046 2.3315 8.74778 2.73422 7.50211 3.24449C6.9318 3.46461 6.49281 3.94362 6.32272 4.53144L2.08417 18.6841C1.85905 19.4345 2.09418 20.2537 2.68575 20.7765C4.74561 22.5687 7.53087 23.9319 10.7414 24.7186C10.9039 24.7599 11.0665 24.7799 11.2279 24.7799C11.9708 24.7799 12.6724 24.3572 13.0076 23.6643L14.197 21.3055C15.125 21.4131 16.0605 21.4656 16.9998 21.4594C17.0548 21.4594 17.1086 21.4594 17.1623 21.4594C18.0466 21.4594 18.9283 21.4081 19.8025 21.3068L20.9907 23.6643C21.3258 24.3572 22.0275 24.7799 22.7704 24.7799C22.9317 24.7799 23.0956 24.7599 23.2569 24.7186C26.4661 23.9319 29.2514 22.5687 31.3175 20.7715C31.9053 20.2537 32.1392 19.4333 31.9141 18.6841H31.9166ZM22.7854 22.7751V22.7726L21.8749 20.9691C22.5915 20.8178 23.3019 20.6327 24.0035 20.4125C24.5313 20.2475 24.824 19.6859 24.6589 19.1581C24.4938 18.6303 23.9323 18.3364 23.4045 18.5028C22.3714 18.8267 21.3171 19.0693 20.2515 19.2281C20.234 19.2306 20.2165 19.2319 20.199 19.2357C19.1447 19.3907 18.0778 19.4658 17.0073 19.457H16.9922C15.9179 19.4645 14.8486 19.3895 13.7918 19.2332C13.7855 19.2332 13.778 19.2319 13.7718 19.2306C12.6974 19.0718 11.6368 18.8279 10.595 18.5015C10.0672 18.3364 9.50569 18.6291 9.3406 19.1569C9.17551 19.6846 9.46942 20.2462 9.99596 20.4113C10.6976 20.6314 11.408 20.8165 12.1246 20.9678L11.2154 22.7713V22.7738C8.3138 22.0622 5.81869 20.849 4.00396 19.2707C4.00021 19.2669 3.99896 19.2619 4.00021 19.2569L8.24001 5.1055C8.24001 5.1055 8.24751 5.103 8.25126 5.10175C9.39188 4.63399 10.5813 4.26379 11.7882 4.0024H11.7919C11.7969 4.0024 11.8007 4.0049 11.8007 4.0024L12.4223 5.88217C11.6056 6.04351 10.7976 6.24862 10.001 6.49875C9.47317 6.66384 9.18051 7.2254 9.3456 7.75318C9.51069 8.28097 10.0722 8.57363 10.6 8.40854C11.6481 8.07961 12.7162 7.83573 13.798 7.67689C13.8543 7.67314 13.9093 7.66689 13.9656 7.65313C14.9674 7.51305 15.9804 7.44677 16.9972 7.45427H17.0123C18.0291 7.44677 19.0409 7.51305 20.0414 7.65313C20.1002 7.66689 20.1602 7.67439 20.219 7.67814C21.2971 7.83823 22.3627 8.08211 23.4095 8.40979C23.5095 8.44106 23.6096 8.45606 23.7084 8.45606C24.1336 8.45606 24.5288 8.18217 24.6627 7.75443C24.8277 7.22665 24.5338 6.66509 24.0073 6.5C23.2094 6.24987 22.4014 6.04476 21.5847 5.88467L22.2038 4.01366C22.2038 4.01366 22.2126 4.00365 22.2201 4.00615C23.4245 4.26755 24.6139 4.6365 25.7545 5.10425C25.7582 5.1055 25.762 5.10675 25.7645 5.108L30.003 19.2607L30.0043 19.2694C28.1846 20.8528 25.6895 22.0659 22.7879 22.7776L22.7854 22.7751Z" stroke="#02FE57" stroke-width="4"/>
</g>
</svg>
