<svg width="30" height="32" viewBox="0 0 30 32" fill="none" xmlns="http://www.w3.org/2000/svg">
<path opacity="1" d="M11.451 29.4987C11.0766 29.5014 10.7718 29.2005 10.7708 28.826C10.7696 28.3665 10.7684 27.7502 10.7672 27.1576L10.767 27.0193C10.766 26.5353 10.3364 26.1677 9.85258 26.1819C6.04503 26.294 5.08784 23.5353 5.07647 23.5037C4.44213 21.8955 3.57483 21.4357 3.53748 21.4166L3.45326 21.3677C3.13881 21.1531 2.30479 20.5819 2.54182 19.8308C2.75575 19.1537 3.58502 19.0837 3.96196 19.0959C6.04972 19.2419 7.1065 21.1185 7.14997 21.198C8.09625 22.8197 9.4849 22.8524 10.5188 22.5698C10.7539 22.5055 10.922 22.2893 10.9895 22.0552C11.1219 21.5964 10.8592 21.0907 10.3958 20.9755C7.2995 20.2058 4.1596 18.1845 4.1596 12.275C4.1596 10.6348 4.62815 9.16938 5.5553 7.90607C5.71315 7.69099 5.76787 7.41693 5.71095 7.15627C5.51344 6.25192 5.41297 4.77137 6.12035 2.97452C6.19503 2.78482 6.35127 2.63841 6.54551 2.57652C6.81909 2.48643 8.2745 2.17346 11.2466 4.03856C11.4368 4.15798 11.6672 4.19613 11.886 4.14528C13.0938 3.86463 14.3632 3.71965 15.6688 3.71345C16.9808 3.71965 18.2521 3.86468 19.4623 4.14542C19.6812 4.19619 19.9115 4.15791 20.1018 4.03839C23.071 2.17305 24.5232 2.48972 24.7975 2.57652C24.9911 2.63879 25.1471 2.78465 25.222 2.97384C25.9323 4.77018 25.8322 6.25118 25.6347 7.15608C25.5778 7.41684 25.6327 7.69097 25.7906 7.90612C26.7157 9.16617 27.1841 10.6321 27.1841 12.275C27.1841 18.1032 24.128 20.1456 21.0683 20.9333C20.5422 21.0687 20.2482 21.6628 20.3857 22.1883C20.5149 22.6825 20.5826 23.2244 20.5826 23.7971C20.5826 24.7377 20.5793 27.4433 20.5752 28.8256C20.574 29.2007 20.2683 29.5014 19.8932 29.4987C19.5181 29.4961 19.2157 29.1912 19.2168 28.8161C19.221 27.4357 19.2242 24.7356 19.2242 23.7964C19.2242 22.1379 18.5838 21.4044 18.3073 21.1653C17.8593 20.7777 18.088 20.0423 18.6768 19.9768C22.2119 19.5842 25.8251 18.3611 25.8251 12.2744C25.8251 10.6919 25.2973 9.31251 24.2562 8.1749C24.0784 7.98096 24.0282 7.70096 24.1285 7.4577C24.2293 7.2141 24.6355 6.0794 24.2648 4.45794C24.1839 4.10399 23.8447 3.87595 23.4918 3.96138C22.8269 4.12235 21.7782 4.52848 20.3068 5.52615C20.1418 5.63742 19.9356 5.67153 19.7438 5.61852C18.4785 5.26671 17.0692 5.0779 15.6681 5.07111C14.2744 5.0779 12.8672 5.26671 11.604 5.61852C11.4122 5.67153 11.2064 5.63761 11.0416 5.52615C9.56771 4.52825 8.51669 4.12134 7.85021 3.96005C7.49714 3.87461 7.15791 4.1029 7.07722 4.45709C6.7076 6.07945 7.11433 7.21411 7.21517 7.4577C7.31548 7.70101 7.26579 7.98072 7.08817 8.1749C6.04497 9.31659 5.51657 10.696 5.51657 12.2744C5.51657 18.3583 9.12295 19.589 12.6506 19.9904C13.2368 20.057 13.4646 20.7884 13.02 21.1762C12.7674 21.3969 12.3205 21.9314 12.1683 23.0283C12.1367 23.2602 11.9873 23.4595 11.7737 23.5553C10.8766 23.9574 7.80809 25.0237 5.96822 21.8676C5.87121 21.7059 5.74858 21.8219 5.84364 21.9847C6.02068 22.288 6.19367 22.6385 6.35263 23.0426C6.39745 23.1716 7.27426 25.5025 11.297 24.6311C11.7186 24.5396 12.1173 24.86 12.1186 25.2914L12.1242 27.1549C12.1254 27.7442 12.1266 28.3571 12.1278 28.815C12.1287 29.19 11.8261 29.4961 11.451 29.4987Z" fill="#02FE57" stroke="#02FE57" stroke-width="4" stroke-linejoin="round"/>
</svg>
