<svg width="26" height="28" viewBox="0 0 26 28" fill="none" xmlns="http://www.w3.org/2000/svg">
<path d="M9.45105 27.4987C9.07663 27.5014 8.77176 27.2005 8.77079 26.826C8.7696 26.3665 8.76841 25.7502 8.76722 25.1576L8.76695 25.0193C8.76602 24.5353 8.33641 24.1677 7.85258 24.1819C4.04503 24.294 3.08784 21.5353 3.07647 21.5037C2.44213 19.8955 1.57483 19.4357 1.53748 19.4166L1.45326 19.3677C1.13881 19.1531 0.304787 18.5819 0.541817 17.8308C0.755755 17.1537 1.58502 17.0837 1.96196 17.0959C4.04972 17.2419 5.1065 19.1185 5.14997 19.198C6.09625 20.8197 7.4849 20.8524 8.51885 20.5698C8.75386 20.5055 8.92196 20.2893 8.98952 20.0552C9.12194 19.5964 8.85924 19.0907 8.3958 18.9755C5.2995 18.2058 2.1596 16.1845 2.1596 10.275C2.1596 8.63478 2.62815 7.16938 3.5553 5.90607C3.71315 5.69099 3.76787 5.41693 3.71095 5.15627C3.51344 4.25192 3.41297 2.77137 4.12035 0.974515C4.19503 0.784821 4.35127 0.638407 4.54551 0.576524C4.81909 0.486429 6.2745 0.173465 9.24655 2.03856C9.43684 2.15798 9.66722 2.19613 9.88605 2.14528C11.0938 1.86463 12.3632 1.71965 13.6688 1.71345C14.9808 1.71965 16.2521 1.86468 17.4623 2.14542C17.6812 2.19619 17.9115 2.15791 18.1018 2.03839C21.071 0.17305 22.5232 0.489719 22.7975 0.576524C22.9911 0.638793 23.1471 0.78465 23.222 0.973837C23.9323 2.77018 23.8322 4.25118 23.6347 5.15608C23.5778 5.41684 23.6327 5.69097 23.7906 5.90612C24.7157 7.16617 25.1841 8.63208 25.1841 10.275C25.1841 16.1032 22.128 18.1456 19.0683 18.9333C18.5422 19.0687 18.2482 19.6628 18.3857 20.1883C18.5149 20.6825 18.5826 21.2244 18.5826 21.7971C18.5826 22.7377 18.5793 25.4433 18.5752 26.8256C18.574 27.2007 18.2683 27.5014 17.8932 27.4987C17.5181 27.4961 17.2157 27.1912 17.2168 26.8161C17.221 25.4357 17.2242 22.7356 17.2242 21.7964C17.2242 20.1379 16.5838 19.4044 16.3073 19.1653C15.8593 18.7777 16.088 18.0423 16.6768 17.9768C20.2119 17.5842 23.8251 16.3611 23.8251 10.2744C23.8251 8.6919 23.2973 7.31251 22.2562 6.1749C22.0784 5.98096 22.0282 5.70096 22.1285 5.4577C22.2293 5.2141 22.6355 4.0794 22.2648 2.45794C22.1839 2.10399 21.8447 1.87595 21.4918 1.96138C20.8269 2.12235 19.7782 2.52848 18.3068 3.52615C18.1418 3.63742 17.9356 3.67153 17.7438 3.61852C16.4785 3.26671 15.0692 3.0779 13.6681 3.07111C12.2744 3.0779 10.8672 3.26671 9.60396 3.61852C9.41218 3.67153 9.20642 3.63761 9.0416 3.52615C7.56771 2.52825 6.51669 2.12134 5.85021 1.96005C5.49714 1.87461 5.15791 2.1029 5.07722 2.45709C4.7076 4.07945 5.11433 5.21411 5.21517 5.4577C5.31548 5.70101 5.26579 5.98072 5.08817 6.1749C4.04497 7.31659 3.51657 8.69598 3.51657 10.2744C3.51657 16.3583 7.12295 17.589 10.6506 17.9904C11.2368 18.057 11.4646 18.7884 11.02 19.1762C10.7674 19.3969 10.3205 19.9314 10.1683 21.0283C10.1367 21.2602 9.98731 21.4595 9.77375 21.5553C8.87657 21.9574 5.80809 23.0237 3.96822 19.8676C3.87121 19.7059 3.74858 19.8219 3.84364 19.9847C4.02068 20.288 4.19367 20.6385 4.35263 21.0426C4.39745 21.1716 5.27426 23.5025 9.29697 22.6311C9.71856 22.5396 10.1173 22.86 10.1186 23.2914L10.1242 25.1549C10.1254 25.7442 10.1266 26.3571 10.1278 26.815C10.1287 27.19 9.82607 27.4961 9.45105 27.4987Z" fill="url(#paint0_linear_140_761)" stroke="url(#paint1_linear_140_761)" stroke-width="0.5" stroke-linejoin="round"/>
<defs>
<linearGradient id="paint0_linear_140_761" x1="73.8338" y1="20.6913" x2="70.6506" y2="-6.67597" gradientUnits="userSpaceOnUse">
<stop stop-color="#2AFC61"/>
<stop offset="1" stop-color="#AE69EB"/>
</linearGradient>
<linearGradient id="paint1_linear_140_761" x1="73.8338" y1="20.6913" x2="70.6506" y2="-6.67597" gradientUnits="userSpaceOnUse">
<stop stop-color="#2AFC61"/>
<stop offset="1" stop-color="#AE69EB"/>
</linearGradient>
</defs>
</svg>
