<svg width="26" height="26" viewBox="0 0 26 26" fill="none" xmlns="http://www.w3.org/2000/svg">
<path fill-rule="evenodd" clip-rule="evenodd" d="M0.5 2.5C0.5 1.39543 1.39543 0.5 2.5 0.5H23.5C24.6046 0.5 25.5 1.39543 25.5 2.5V23.5C25.5 24.6046 24.6046 25.5 23.5 25.5H2.5C1.39543 25.5 0.5 24.6046 0.5 23.5V2.5ZM23.5 2.5H2.5V23.5H23.5V2.5Z" fill="url(#paint0_linear_38_311)"/>
<path fill-rule="evenodd" clip-rule="evenodd" d="M12 10C12.5523 10 13 10.4477 13 11V19C13 19.5523 12.5523 20 12 20C11.4477 20 11 19.5523 11 19V11C11 10.4477 11.4477 10 12 10Z" fill="url(#paint1_linear_38_311)"/>
<path fill-rule="evenodd" clip-rule="evenodd" d="M8 10C8.55229 10 9 10.4477 9 11V19C9 19.5523 8.55229 20 8 20C7.44772 20 7 19.5523 7 19V11C7 10.4477 7.44772 10 8 10Z" fill="url(#paint2_linear_38_311)"/>
<path fill-rule="evenodd" clip-rule="evenodd" d="M15.5 12C14.837 12 14.2011 12.2634 13.7322 12.7322C13.2634 13.2011 13 13.837 13 14.5C13 15.0523 12.5523 15.5 12 15.5C11.4477 15.5 11 15.0523 11 14.5C11 13.3065 11.4741 12.1619 12.318 11.318C13.1619 10.4741 14.3065 10 15.5 10C16.6935 10 17.8381 10.4741 18.682 11.318C19.5259 12.1619 20 13.3065 20 14.5V19C20 19.5523 19.5523 20 19 20C18.4477 20 18 19.5523 18 19V14.5C18 13.837 17.7366 13.2011 17.2678 12.7322C16.7989 12.2634 16.163 12 15.5 12Z" fill="url(#paint3_linear_38_311)"/>
<path d="M8 8.5C8.82843 8.5 9.5 7.82843 9.5 7C9.5 6.17157 8.82843 5.5 8 5.5C7.17157 5.5 6.5 6.17157 6.5 7C6.5 7.82843 7.17157 8.5 8 8.5Z" fill="url(#paint4_linear_38_311)"/>
<defs>
<linearGradient id="paint0_linear_38_311" x1="74.7724" y1="19.1932" x2="72.0726" y2="-6.19928" gradientUnits="userSpaceOnUse">
<stop stop-color="#2AFC61"/>
<stop offset="1" stop-color="#AE69EB"/>
</linearGradient>
<linearGradient id="paint1_linear_38_311" x1="74.7724" y1="19.1932" x2="72.0726" y2="-6.19928" gradientUnits="userSpaceOnUse">
<stop stop-color="#2AFC61"/>
<stop offset="1" stop-color="#AE69EB"/>
</linearGradient>
<linearGradient id="paint2_linear_38_311" x1="74.7724" y1="19.1932" x2="72.0726" y2="-6.19928" gradientUnits="userSpaceOnUse">
<stop stop-color="#2AFC61"/>
<stop offset="1" stop-color="#AE69EB"/>
</linearGradient>
<linearGradient id="paint3_linear_38_311" x1="74.7724" y1="19.1932" x2="72.0726" y2="-6.19928" gradientUnits="userSpaceOnUse">
<stop stop-color="#2AFC61"/>
<stop offset="1" stop-color="#AE69EB"/>
</linearGradient>
<linearGradient id="paint4_linear_38_311" x1="74.7724" y1="19.1932" x2="72.0726" y2="-6.19928" gradientUnits="userSpaceOnUse">
<stop stop-color="#2AFC61"/>
<stop offset="1" stop-color="#AE69EB"/>
</linearGradient>
</defs>
</svg>
