<svg width="30" height="30" viewBox="0 0 30 30" fill="none" xmlns="http://www.w3.org/2000/svg">
<g opacity="0.25">
<path fill-rule="evenodd" clip-rule="evenodd" d="M2.5 4.5C2.5 3.39543 3.39543 2.5 4.5 2.5H25.5C26.6046 2.5 27.5 3.39543 27.5 4.5V25.5C27.5 26.6046 26.6046 27.5 25.5 27.5H4.5C3.39543 27.5 2.5 26.6046 2.5 25.5V4.5ZM25.5 4.5H4.5V25.5H25.5V4.5Z" fill="#02FE57"/>
<path fill-rule="evenodd" clip-rule="evenodd" d="M14 12C14.5523 12 15 12.4477 15 13V21C15 21.5523 14.5523 22 14 22C13.4477 22 13 21.5523 13 21V13C13 12.4477 13.4477 12 14 12Z" fill="#02FE57"/>
<path fill-rule="evenodd" clip-rule="evenodd" d="M10 12C10.5523 12 11 12.4477 11 13V21C11 21.5523 10.5523 22 10 22C9.44772 22 9 21.5523 9 21V13C9 12.4477 9.44772 12 10 12Z" fill="#02FE57"/>
<path fill-rule="evenodd" clip-rule="evenodd" d="M17.5 14C16.837 14 16.2011 14.2634 15.7322 14.7322C15.2634 15.2011 15 15.837 15 16.5C15 17.0523 14.5523 17.5 14 17.5C13.4477 17.5 13 17.0523 13 16.5C13 15.3065 13.4741 14.1619 14.318 13.318C15.1619 12.4741 16.3065 12 17.5 12C18.6935 12 19.8381 12.4741 20.682 13.318C21.5259 14.1619 22 15.3065 22 16.5V21C22 21.5523 21.5523 22 21 22C20.4477 22 20 21.5523 20 21V16.5C20 15.837 19.7366 15.2011 19.2678 14.7322C18.7989 14.2634 18.163 14 17.5 14Z" fill="#02FE57"/>
<path d="M10 10.5C10.8284 10.5 11.5 9.82843 11.5 9C11.5 8.17157 10.8284 7.5 10 7.5C9.17157 7.5 8.5 8.17157 8.5 9C8.5 9.82843 9.17157 10.5 10 10.5Z" fill="#02FE57"/>
<path d="M4.5 4.5V2.5C3.39543 2.5 2.5 3.39543 2.5 4.5H4.5ZM25.5 4.5H27.5C27.5 3.39543 26.6046 2.5 25.5 2.5V4.5ZM4.5 25.5H2.5C2.5 26.6046 3.39543 27.5 4.5 27.5V25.5ZM25.5 25.5V27.5C26.6046 27.5 27.5 26.6046 27.5 25.5H25.5ZM15.7322 14.7322L17.1464 16.1464H17.1464L15.7322 14.7322ZM14.318 13.318L15.7322 14.7322L14.318 13.318ZM20.682 13.318L19.2678 14.7322L20.682 13.318ZM19.2678 14.7322L20.682 13.318V13.318L19.2678 14.7322ZM4.5 0.5C2.29086 0.5 0.5 2.29086 0.5 4.5H4.5V0.5ZM25.5 0.5H4.5V4.5H25.5V0.5ZM29.5 4.5C29.5 2.29086 27.7091 0.5 25.5 0.5V4.5H29.5ZM29.5 25.5V4.5H25.5V25.5H29.5ZM25.5 29.5C27.7091 29.5 29.5 27.7091 29.5 25.5H25.5V29.5ZM4.5 29.5H25.5V25.5H4.5V29.5ZM0.5 25.5C0.5 27.7091 2.29086 29.5 4.5 29.5V25.5H0.5ZM0.5 4.5V25.5H4.5V4.5H0.5ZM4.5 6.5H25.5V2.5H4.5V6.5ZM6.5 25.5V4.5H2.5V25.5H6.5ZM25.5 23.5H4.5V27.5H25.5V23.5ZM23.5 4.5V25.5H27.5V4.5H23.5ZM17 13C17 11.3431 15.6569 10 14 10V14C13.4477 14 13 13.5523 13 13H17ZM17 21V13H13V21H17ZM14 24C15.6569 24 17 22.6569 17 21H13C13 20.4477 13.4477 20 14 20V24ZM11 21C11 22.6569 12.3431 24 14 24V20C14.5523 20 15 20.4477 15 21H11ZM11 13V21H15V13H11ZM14 10C12.3431 10 11 11.3431 11 13H15C15 13.5523 14.5523 14 14 14V10ZM13 13C13 11.3431 11.6569 10 10 10V14C9.44772 14 9 13.5523 9 13H13ZM13 21V13H9V21H13ZM10 24C11.6569 24 13 22.6569 13 21H9C9 20.4477 9.44772 20 10 20V24ZM7 21C7 22.6569 8.34315 24 10 24V20C10.5523 20 11 20.4477 11 21H7ZM7 13V21H11V13H7ZM10 10C8.34315 10 7 11.3431 7 13H11C11 13.5523 10.5523 14 10 14V10ZM17.1464 16.1464C17.2402 16.0527 17.3674 16 17.5 16V12C16.3065 12 15.1619 12.4741 14.318 13.318L17.1464 16.1464ZM17 16.5C17 16.3674 17.0527 16.2402 17.1464 16.1464L14.318 13.318C13.4741 14.1619 13 15.3065 13 16.5H17ZM14 19.5C15.6569 19.5 17 18.1569 17 16.5H13C13 15.9477 13.4477 15.5 14 15.5V19.5ZM11 16.5C11 18.1569 12.3431 19.5 14 19.5V15.5C14.5523 15.5 15 15.9477 15 16.5H11ZM12.9038 11.9038C11.6848 13.1228 11 14.7761 11 16.5H15C15 15.837 15.2634 15.2011 15.7322 14.7322L12.9038 11.9038ZM17.5 10C15.7761 10 14.1228 10.6848 12.9038 11.9038L15.7322 14.7322C16.2011 14.2634 16.837 14 17.5 14V10ZM22.0962 11.9038C20.8772 10.6848 19.2239 10 17.5 10V14C18.163 14 18.7989 14.2634 19.2678 14.7322L22.0962 11.9038ZM24 16.5C24 14.7761 23.3152 13.1228 22.0962 11.9038L19.2678 14.7322C19.7366 15.2011 20 15.837 20 16.5H24ZM24 21V16.5H20V21H24ZM21 24C22.6569 24 24 22.6569 24 21H20C20 20.4477 20.4477 20 21 20V24ZM18 21C18 22.6569 19.3431 24 21 24V20C21.5523 20 22 20.4477 22 21H18ZM18 16.5V21H22V16.5H18ZM17.8536 16.1464C17.9473 16.2402 18 16.3674 18 16.5H22C22 15.3065 21.5259 14.1619 20.682 13.318L17.8536 16.1464ZM17.5 16C17.6326 16 17.7598 16.0527 17.8536 16.1464L20.682 13.318C19.8381 12.4741 18.6935 12 17.5 12V16ZM9.5 9C9.5 8.72386 9.72386 8.5 10 8.5V12.5C11.933 12.5 13.5 10.933 13.5 9H9.5ZM10 8.5C10.2761 8.5 10.5 8.72386 10.5 9H6.5C6.5 10.933 8.067 12.5 10 12.5V8.5ZM10.5 9C10.5 9.27614 10.2761 9.5 10 9.5V5.5C8.067 5.5 6.5 7.067 6.5 9H10.5ZM10 9.5C9.72386 9.5 9.5 9.27614 9.5 9H13.5C13.5 7.067 11.933 5.5 10 5.5V9.5Z" fill="#02FE57"/>
</g>
</svg>
