<svg width="28" height="24" viewBox="0 0 28 24" fill="none" xmlns="http://www.w3.org/2000/svg">
<path d="M6.32602 24H6.31727C4.50232 24 3.00611 23.7125 1.87114 23.145C0.954915 22.6863 0.579925 22.195 0.486178 22.0551C0.317433 21.8013 0.272434 21.4838 0.366181 21.1938C0.459929 20.9038 0.681173 20.6713 0.966165 20.5651C0.998664 20.5526 3.94733 19.4201 5.85353 17.2639C5.0373 16.6877 3.85359 15.7002 2.76237 14.219C1.04991 11.8941 -0.762538 7.85544 0.333682 1.82186C0.39993 1.45562 0.664923 1.15688 1.01991 1.04563C1.3749 0.934382 1.76239 1.03063 2.02489 1.29312C2.06863 1.33687 6.22977 5.43926 11.3171 6.76422V6.00049C11.3171 4.39929 11.9571 2.88558 13.1183 1.74061C14.2771 0.596892 15.7933 -0.0230915 17.3932 0.000657897C19.5219 0.0256572 21.4681 1.18313 22.5181 3.00058H26.3167C26.7217 3.00058 27.0854 3.24432 27.2404 3.61806C27.3954 3.9918 27.3092 4.42179 27.0242 4.70803L23.2493 8.48293C22.8881 12.6628 21.0119 16.5302 17.9432 19.4064C14.7833 22.3688 10.6572 24 6.32602 24ZM3.41485 21.6151C4.06233 21.8251 4.9973 22.0001 6.31727 22.0001H6.32477C14.2071 22.0001 20.7756 15.8402 21.2819 7.97419C21.2969 7.7317 21.4006 7.50295 21.5731 7.33171L23.903 5.00177H21.9043C21.5069 5.00177 21.1469 4.76678 20.9881 4.40179C20.3594 2.96183 18.9394 2.01935 17.3682 2.00185C17.3507 2.00185 17.332 2.00185 17.3145 2.00185C16.2732 2.00185 15.2845 2.41434 14.5233 3.16557C13.7458 3.9318 13.3183 4.93927 13.3183 6.00174V8.00169C13.3183 8.29543 13.1883 8.57417 12.9646 8.76417C12.7408 8.95416 12.4434 9.03541 12.1534 8.98791C7.81098 8.26418 4.02983 5.61425 2.05738 3.9943C1.75489 7.4992 2.53112 10.5329 4.37357 13.0328C5.96228 15.189 7.74723 16.0977 7.76598 16.1065C8.02222 16.2352 8.21222 16.4665 8.28471 16.7439C8.35721 17.0214 8.30971 17.3164 8.14972 17.5552C6.85975 19.4901 4.85481 20.8338 3.41485 21.6151Z" fill="url(#paint0_linear_38_305)"/>
<defs>
<linearGradient id="paint0_linear_38_305" x1="81.1548" y1="17.9455" x2="78.8718" y2="-6.49362" gradientUnits="userSpaceOnUse">
<stop stop-color="#2AFC61"/>
<stop offset="1" stop-color="#AE69EB"/>
</linearGradient>
</defs>
</svg>
