<svg width="32" height="28" viewBox="0 0 32 28" fill="none" xmlns="http://www.w3.org/2000/svg">
<path opacity="0.25" d="M8.32602 26H8.31727C6.50232 26 5.00611 25.7125 3.87114 25.145C2.95492 24.6863 2.57993 24.195 2.48618 24.0551C2.31743 23.8013 2.27243 23.4838 2.36618 23.1938C2.45993 22.9038 2.68117 22.6713 2.96616 22.5651C2.99866 22.5526 5.94733 21.4201 7.85353 19.2639C7.0373 18.6877 5.85359 17.7002 4.76237 16.219C3.04991 13.8941 1.23746 9.85544 2.33368 3.82186C2.39993 3.45562 2.66492 3.15688 3.01991 3.04563C3.3749 2.93438 3.76239 3.03063 4.02489 3.29312C4.06863 3.33687 8.22977 7.43926 13.3171 8.76422V8.00049C13.3171 6.39929 13.9571 4.88558 15.1183 3.74061C16.2771 2.59689 17.7933 1.97691 19.3932 2.00066C21.5219 2.02566 23.4681 3.18313 24.5181 5.00058H28.3167C28.7217 5.00058 29.0854 5.24432 29.2404 5.61806C29.3954 5.9918 29.3092 6.42179 29.0242 6.70803L25.2493 10.4829C24.8881 14.6628 23.0119 18.5302 19.9432 21.4064C16.7833 24.3688 12.6572 26 8.32602 26ZM5.41485 23.6151C6.06233 23.8251 6.9973 24.0001 8.31727 24.0001H8.32477C16.2071 24.0001 22.7756 17.8402 23.2819 9.97419C23.2969 9.7317 23.4006 9.50295 23.5731 9.33171L25.903 7.00177H23.9043C23.5069 7.00177 23.1469 6.76678 22.9881 6.40179C22.3594 4.96183 20.9394 4.01935 19.3682 4.00185C19.3507 4.00185 19.332 4.00185 19.3145 4.00185C18.2732 4.00185 17.2845 4.41434 16.5233 5.16557C15.7458 5.9318 15.3183 6.93927 15.3183 8.00174V10.0017C15.3183 10.2954 15.1883 10.5742 14.9646 10.7642C14.7408 10.9542 14.4434 11.0354 14.1534 10.9879C9.81098 10.2642 6.02983 7.61425 4.05738 5.9943C3.75489 9.4992 4.53112 12.5329 6.37357 15.0328C7.96228 17.189 9.74723 18.0977 9.76598 18.1065C10.0222 18.2352 10.2122 18.4665 10.2847 18.7439C10.3572 19.0214 10.3097 19.3164 10.1497 19.5552C8.85975 21.4901 6.85481 22.8338 5.41485 23.6151Z" fill="#02FE57" stroke="#02FE57" stroke-width="4"/>
</svg>
