<svg width="32" height="26" viewBox="0 0 32 26" fill="none" xmlns="http://www.w3.org/2000/svg">
<g opacity="0.25">
<path fill-rule="evenodd" clip-rule="evenodd" d="M13.5281 8.11808C13.8533 7.94406 14.2478 7.96314 14.5547 8.16771L20.5547 12.1677C20.8329 12.3532 21 12.6654 21 12.9998C21 13.3341 20.8329 13.6463 20.5547 13.8318L14.5547 17.8318C14.2478 18.0364 13.8533 18.0555 13.5281 17.8814C13.203 17.7074 13 17.3686 13 16.9998V8.99976C13 8.63096 13.203 8.2921 13.5281 8.11808ZM15 10.8683V15.1312L18.1972 12.9998L15 10.8683Z" fill="#02FE57"/>
<path fill-rule="evenodd" clip-rule="evenodd" d="M15.9985 2.04985L15.9816 2.0498L15.9188 2.04983C15.8643 2.04996 15.785 2.05035 15.6831 2.05143C15.4794 2.05359 15.1856 2.0585 14.8206 2.06945C14.0912 2.09135 13.0746 2.13749 11.9237 2.23466C9.64733 2.42685 6.74928 2.82571 4.51808 3.67823L4.50338 3.68398C4.06511 3.85941 3.6742 4.13539 3.36218 4.48966C3.05016 4.84393 2.82577 5.26657 2.70711 5.7235L2.70614 5.72726C2.39473 6.94582 2 9.2055 2 12.9999C2 16.7942 2.39473 19.0539 2.70614 20.2725L2.70711 20.2762C2.82577 20.7332 3.05016 21.1558 3.36218 21.5101C3.6742 21.8643 4.06511 22.1403 4.50338 22.3157L4.51808 22.3215C6.74928 23.174 9.64733 23.5729 11.9237 23.7651C13.0746 23.8622 14.0912 23.9084 14.8206 23.9303C15.1856 23.9412 15.4794 23.9461 15.6831 23.9483C15.785 23.9494 15.8643 23.9498 15.9188 23.9499L15.9816 23.9499L15.9985 23.9499H16.0015L16.0184 23.9499L16.0812 23.9499C16.1357 23.9498 16.215 23.9494 16.3169 23.9483C16.5206 23.9461 16.8144 23.9412 17.1794 23.9303C17.9088 23.9084 18.9254 23.8622 20.0763 23.7651C22.3527 23.5729 25.2507 23.174 27.4819 22.3215L27.4966 22.3157C27.9349 22.1403 28.3258 21.8643 28.6378 21.5101C28.9498 21.1558 29.1742 20.7332 29.2929 20.2762L29.2939 20.2725C29.6053 19.0539 30 16.7942 30 12.9999C30 9.2055 29.6053 6.94582 29.2939 5.72726L29.2929 5.7235C29.1742 5.26657 28.9498 4.84393 28.6378 4.48966C28.3258 4.13539 27.9349 3.85941 27.4966 3.68398L27.4819 3.67823C25.2507 2.82571 22.3527 2.42685 20.0763 2.23466C18.9254 2.13749 17.9088 2.09135 17.1794 2.06945C16.8144 2.0585 16.5206 2.05359 16.3169 2.05143C16.215 2.05035 16.1357 2.04996 16.0812 2.04983L16.0184 2.0498L16.0015 2.04985H15.9985ZM15.9947 21.9499L16.0054 21.9498L16.0086 21.9499L16.0217 21.9499L16.0767 21.9499C16.1259 21.9498 16.1996 21.9494 16.2957 21.9484C16.4877 21.9464 16.7686 21.9417 17.1194 21.9312C17.8216 21.9101 18.8011 21.8656 19.9081 21.7722C22.1441 21.5834 24.8041 21.2018 26.7596 20.4565C26.9044 20.3974 27.0336 20.3056 27.1369 20.1882C27.2414 20.0695 27.3167 19.928 27.3567 19.7751C27.6203 18.7429 28 16.6529 28 12.9999C28 9.34679 27.6203 7.25685 27.3567 6.22464C27.3167 6.07168 27.2414 5.9302 27.1369 5.81154C27.0336 5.69415 26.9044 5.60233 26.7596 5.54326C24.8041 4.79791 22.1441 4.41635 19.9081 4.22757C18.8011 4.13411 17.8216 4.08963 17.1194 4.06855C16.7686 4.05802 16.4877 4.05336 16.2957 4.05132C16.1996 4.0503 16.1259 4.04994 16.0767 4.04983L16.0217 4.0498L16.0086 4.04983L16.0058 4.04985L15.9946 4.04991L15.9914 4.04983L15.9783 4.0498L15.9233 4.04983C15.8741 4.04994 15.8004 4.0503 15.7043 4.05132C15.5123 4.05336 15.2314 4.05802 14.8806 4.06855C14.1784 4.08963 13.1989 4.13411 12.0919 4.22757C9.8559 4.41635 7.1959 4.79791 5.24039 5.54327C5.09561 5.60234 4.96645 5.69415 4.86306 5.81154C4.75855 5.9302 4.6833 6.07168 4.64331 6.22464C4.37974 7.25685 4 9.3468 4 12.9999C4 16.6529 4.37973 18.7429 4.6433 19.7751C4.68329 19.928 4.75855 20.0695 4.86306 20.1882C4.96645 20.3056 5.09561 20.3974 5.24038 20.4565C7.1959 21.2018 9.8559 21.5834 12.0919 21.7722C13.1989 21.8656 14.1784 21.9101 14.8806 21.9312C15.2314 21.9417 15.5123 21.9464 15.7043 21.9484C15.8004 21.9494 15.8741 21.9498 15.9233 21.9499L15.9783 21.9499L15.9914 21.9499L15.9947 21.9499Z" fill="#02FE57"/>
<path fill-rule="evenodd" clip-rule="evenodd" d="M13.5281 8.11808C13.8533 7.94406 14.2478 7.96314 14.5547 8.16771L20.5547 12.1677C20.8329 12.3532 21 12.6654 21 12.9998C21 13.3341 20.8329 13.6463 20.5547 13.8318L14.5547 17.8318C14.2478 18.0364 13.8533 18.0555 13.5281 17.8814C13.203 17.7074 13 17.3686 13 16.9998V8.99976C13 8.63096 13.203 8.2921 13.5281 8.11808ZM15 10.8683V15.1312L18.1972 12.9998L15 10.8683Z" stroke="#02FE57" stroke-width="4" stroke-linecap="round" stroke-linejoin="round"/>
<path fill-rule="evenodd" clip-rule="evenodd" d="M15.9985 2.04985L15.9816 2.0498L15.9188 2.04983C15.8643 2.04996 15.785 2.05035 15.6831 2.05143C15.4794 2.05359 15.1856 2.0585 14.8206 2.06945C14.0912 2.09135 13.0746 2.13749 11.9237 2.23466C9.64733 2.42685 6.74928 2.82571 4.51808 3.67823L4.50338 3.68398C4.06511 3.85941 3.6742 4.13539 3.36218 4.48966C3.05016 4.84393 2.82577 5.26657 2.70711 5.7235L2.70614 5.72726C2.39473 6.94582 2 9.2055 2 12.9999C2 16.7942 2.39473 19.0539 2.70614 20.2725L2.70711 20.2762C2.82577 20.7332 3.05016 21.1558 3.36218 21.5101C3.6742 21.8643 4.06511 22.1403 4.50338 22.3157L4.51808 22.3215C6.74928 23.174 9.64733 23.5729 11.9237 23.7651C13.0746 23.8622 14.0912 23.9084 14.8206 23.9303C15.1856 23.9412 15.4794 23.9461 15.6831 23.9483C15.785 23.9494 15.8643 23.9498 15.9188 23.9499L15.9816 23.9499L15.9985 23.9499H16.0015L16.0184 23.9499L16.0812 23.9499C16.1357 23.9498 16.215 23.9494 16.3169 23.9483C16.5206 23.9461 16.8144 23.9412 17.1794 23.9303C17.9088 23.9084 18.9254 23.8622 20.0763 23.7651C22.3527 23.5729 25.2507 23.174 27.4819 22.3215L27.4966 22.3157C27.9349 22.1403 28.3258 21.8643 28.6378 21.5101C28.9498 21.1558 29.1742 20.7332 29.2929 20.2762L29.2939 20.2725C29.6053 19.0539 30 16.7942 30 12.9999C30 9.2055 29.6053 6.94582 29.2939 5.72726L29.2929 5.7235C29.1742 5.26657 28.9498 4.84393 28.6378 4.48966C28.3258 4.13539 27.9349 3.85941 27.4966 3.68398L27.4819 3.67823C25.2507 2.82571 22.3527 2.42685 20.0763 2.23466C18.9254 2.13749 17.9088 2.09135 17.1794 2.06945C16.8144 2.0585 16.5206 2.05359 16.3169 2.05143C16.215 2.05035 16.1357 2.04996 16.0812 2.04983L16.0184 2.0498L16.0015 2.04985H15.9985ZM15.9947 21.9499L16.0054 21.9498L16.0086 21.9499L16.0217 21.9499L16.0767 21.9499C16.1259 21.9498 16.1996 21.9494 16.2957 21.9484C16.4877 21.9464 16.7686 21.9417 17.1194 21.9312C17.8216 21.9101 18.8011 21.8656 19.9081 21.7722C22.1441 21.5834 24.8041 21.2018 26.7596 20.4565C26.9044 20.3974 27.0336 20.3056 27.1369 20.1882C27.2414 20.0695 27.3167 19.928 27.3567 19.7751C27.6203 18.7429 28 16.6529 28 12.9999C28 9.34679 27.6203 7.25685 27.3567 6.22464C27.3167 6.07168 27.2414 5.9302 27.1369 5.81154C27.0336 5.69415 26.9044 5.60233 26.7596 5.54326C24.8041 4.79791 22.1441 4.41635 19.9081 4.22757C18.8011 4.13411 17.8216 4.08963 17.1194 4.06855C16.7686 4.05802 16.4877 4.05336 16.2957 4.05132C16.1996 4.0503 16.1259 4.04994 16.0767 4.04983L16.0217 4.0498L16.0086 4.04983L16.0058 4.04985L15.9946 4.04991L15.9914 4.04983L15.9783 4.0498L15.9233 4.04983C15.8741 4.04994 15.8004 4.0503 15.7043 4.05132C15.5123 4.05336 15.2314 4.05802 14.8806 4.06855C14.1784 4.08963 13.1989 4.13411 12.0919 4.22757C9.8559 4.41635 7.1959 4.79791 5.24039 5.54327C5.09561 5.60234 4.96645 5.69415 4.86306 5.81154C4.75855 5.9302 4.6833 6.07168 4.64331 6.22464C4.37974 7.25685 4 9.3468 4 12.9999C4 16.6529 4.37973 18.7429 4.6433 19.7751C4.68329 19.928 4.75855 20.0695 4.86306 20.1882C4.96645 20.3056 5.09561 20.3974 5.24038 20.4565C7.1959 21.2018 9.8559 21.5834 12.0919 21.7722C13.1989 21.8656 14.1784 21.9101 14.8806 21.9312C15.2314 21.9417 15.5123 21.9464 15.7043 21.9484C15.8004 21.9494 15.8741 21.9498 15.9233 21.9499L15.9783 21.9499L15.9914 21.9499L15.9947 21.9499Z" stroke="#02FE57" stroke-width="4" stroke-linecap="round" stroke-linejoin="round"/>
</g>
</svg>
