<svg width="28" height="22" viewBox="0 0 28 22" fill="none" xmlns="http://www.w3.org/2000/svg">
<path fill-rule="evenodd" clip-rule="evenodd" d="M11.5281 6.11808C11.8533 5.94406 12.2478 5.96314 12.5547 6.16771L18.5547 10.1677C18.8329 10.3532 19 10.6654 19 10.9998C19 11.3341 18.8329 11.6463 18.5547 11.8318L12.5547 15.8318C12.2478 16.0364 11.8533 16.0555 11.5281 15.8814C11.203 15.7074 11 15.3686 11 14.9998V6.99976C11 6.63096 11.203 6.2921 11.5281 6.11808ZM13 8.86827V13.1312L16.1972 10.9998L13 8.86827Z" fill="url(#paint0_linear_38_314)"/>
<path fill-rule="evenodd" clip-rule="evenodd" d="M13.9985 0.0498473L13.9816 0.0498047L13.9188 0.049834C13.8643 0.049956 13.785 0.0503512 13.6831 0.051432C13.4794 0.0535932 13.1856 0.0584977 12.8206 0.0694528C12.0912 0.0913454 11.0746 0.13749 9.92368 0.234657C7.64733 0.426848 4.74928 0.82571 2.51808 1.67823L2.50338 1.68398C2.06511 1.85941 1.6742 2.13539 1.36218 2.48966C1.05016 2.84393 0.825774 3.26657 0.707108 3.7235L0.706137 3.72726C0.394729 4.94582 0 7.2055 0 10.9999C0 14.7942 0.394729 17.0539 0.706137 18.2725L0.707108 18.2762C0.825774 18.7332 1.05016 19.1558 1.36218 19.5101C1.6742 19.8643 2.06511 20.1403 2.50338 20.3157L2.51808 20.3215C4.74928 21.174 7.64733 21.5729 9.92368 21.7651C11.0746 21.8622 12.0912 21.9084 12.8206 21.9303C13.1856 21.9412 13.4794 21.9461 13.6831 21.9483C13.785 21.9494 13.8643 21.9498 13.9188 21.9499L13.9816 21.9499L13.9985 21.9499H14.0015L14.0184 21.9499L14.0812 21.9499C14.1357 21.9498 14.215 21.9494 14.3169 21.9483C14.5206 21.9461 14.8144 21.9412 15.1794 21.9303C15.9088 21.9084 16.9254 21.8622 18.0763 21.7651C20.3527 21.5729 23.2507 21.174 25.4819 20.3215L25.4966 20.3157C25.9349 20.1403 26.3258 19.8643 26.6378 19.5101C26.9498 19.1558 27.1742 18.7332 27.2929 18.2762L27.2939 18.2725C27.6053 17.0539 28 14.7942 28 10.9999C28 7.2055 27.6053 4.94582 27.2939 3.72726L27.2929 3.7235C27.1742 3.26657 26.9498 2.84393 26.6378 2.48966C26.3258 2.13539 25.9349 1.85941 25.4966 1.68398L25.4819 1.67823C23.2507 0.82571 20.3527 0.426848 18.0763 0.234657C16.9254 0.13749 15.9088 0.0913454 15.1794 0.0694528C14.8144 0.0584977 14.5206 0.0535932 14.3169 0.051432C14.215 0.0503512 14.1357 0.049956 14.0812 0.049834L14.0184 0.0498047L14.0015 0.0498473H13.9985ZM13.9947 19.9499L14.0054 19.9498L14.0086 19.9499L14.0217 19.9499L14.0767 19.9499C14.1259 19.9498 14.1996 19.9494 14.2957 19.9484C14.4877 19.9464 14.7686 19.9417 15.1194 19.9312C15.8216 19.9101 16.8011 19.8656 17.9081 19.7722C20.1441 19.5834 22.8041 19.2018 24.7596 18.4565C24.9044 18.3974 25.0336 18.3056 25.1369 18.1882C25.2414 18.0695 25.3167 17.928 25.3567 17.7751C25.6203 16.7429 26 14.6529 26 10.9999C26 7.34679 25.6203 5.25685 25.3567 4.22464C25.3167 4.07168 25.2414 3.9302 25.1369 3.81154C25.0336 3.69415 24.9044 3.60233 24.7596 3.54326C22.8041 2.79791 20.1441 2.41635 17.9081 2.22757C16.8011 2.13411 15.8216 2.08963 15.1194 2.06855C14.7686 2.05802 14.4877 2.05336 14.2957 2.05132C14.1996 2.0503 14.1259 2.04994 14.0767 2.04983L14.0217 2.0498L14.0086 2.04983L14.0058 2.04985L13.9946 2.04991L13.9914 2.04983L13.9783 2.0498L13.9233 2.04983C13.8741 2.04994 13.8004 2.0503 13.7043 2.05132C13.5123 2.05336 13.2314 2.05802 12.8806 2.06855C12.1784 2.08963 11.1989 2.13411 10.0919 2.22757C7.8559 2.41635 5.1959 2.79791 3.24039 3.54327C3.09561 3.60234 2.96645 3.69415 2.86306 3.81154C2.75855 3.9302 2.6833 4.07168 2.64331 4.22464C2.37974 5.25685 2 7.3468 2 10.9999C2 14.6529 2.37973 16.7429 2.6433 17.7751C2.68329 17.928 2.75855 18.0695 2.86306 18.1882C2.96645 18.3056 3.09561 18.3974 3.24038 18.4565C5.1959 19.2018 7.8559 19.5834 10.0919 19.7722C11.1989 19.8656 12.1784 19.9101 12.8806 19.9312C13.2314 19.9417 13.5123 19.9464 13.7043 19.9484C13.8004 19.9494 13.8741 19.9498 13.9233 19.9499L13.9783 19.9499L13.9914 19.9499L13.9947 19.9499Z" fill="url(#paint1_linear_38_314)"/>
<defs>
<linearGradient id="paint0_linear_38_314" x1="83.1851" y1="16.4252" x2="81.3272" y2="-5.91576" gradientUnits="userSpaceOnUse">
<stop stop-color="#2AFC61"/>
<stop offset="1" stop-color="#AE69EB"/>
</linearGradient>
<linearGradient id="paint1_linear_38_314" x1="83.1851" y1="16.4252" x2="81.3272" y2="-5.91576" gradientUnits="userSpaceOnUse">
<stop stop-color="#2AFC61"/>
<stop offset="1" stop-color="#AE69EB"/>
</linearGradient>
</defs>
</svg>
