<svg width="32" height="32" viewBox="0 0 32 32" fill="none" xmlns="http://www.w3.org/2000/svg">
<path fill-rule="evenodd" clip-rule="evenodd" d="M3.5 5.5C3.5 4.39543 4.39543 3.5 5.5 3.5H26.5C27.6046 3.5 28.5 4.39543 28.5 5.5V26.5C28.5 27.6046 27.6046 28.5 26.5 28.5H5.5C4.39543 28.5 3.5 27.6046 3.5 26.5V5.5ZM26.5 5.5H5.5V26.5H26.5V5.5Z" fill="url(#paint0_linear_140_906)"/>
<path fill-rule="evenodd" clip-rule="evenodd" d="M15 13C15.5523 13 16 13.4477 16 14V22C16 22.5523 15.5523 23 15 23C14.4477 23 14 22.5523 14 22V14C14 13.4477 14.4477 13 15 13Z" fill="url(#paint1_linear_140_906)"/>
<path fill-rule="evenodd" clip-rule="evenodd" d="M11 13C11.5523 13 12 13.4477 12 14V22C12 22.5523 11.5523 23 11 23C10.4477 23 10 22.5523 10 22V14C10 13.4477 10.4477 13 11 13Z" fill="url(#paint2_linear_140_906)"/>
<path fill-rule="evenodd" clip-rule="evenodd" d="M18.5 15C17.837 15 17.2011 15.2634 16.7322 15.7322C16.2634 16.2011 16 16.837 16 17.5C16 18.0523 15.5523 18.5 15 18.5C14.4477 18.5 14 18.0523 14 17.5C14 16.3065 14.4741 15.1619 15.318 14.318C16.1619 13.4741 17.3065 13 18.5 13C19.6935 13 20.8381 13.4741 21.682 14.318C22.5259 15.1619 23 16.3065 23 17.5V22C23 22.5523 22.5523 23 22 23C21.4477 23 21 22.5523 21 22V17.5C21 16.837 20.7366 16.2011 20.2678 15.7322C19.7989 15.2634 19.163 15 18.5 15Z" fill="url(#paint3_linear_140_906)"/>
<path d="M11 11.5C11.8284 11.5 12.5 10.8284 12.5 10C12.5 9.17157 11.8284 8.5 11 8.5C10.1716 8.5 9.5 9.17157 9.5 10C9.5 10.8284 10.1716 11.5 11 11.5Z" fill="url(#paint4_linear_140_906)"/>
<defs>
<linearGradient id="paint0_linear_140_906" x1="77.7724" y1="22.1932" x2="75.0726" y2="-3.19928" gradientUnits="userSpaceOnUse">
<stop stop-color="#2AFC61"/>
<stop offset="1" stop-color="#AE69EB"/>
</linearGradient>
<linearGradient id="paint1_linear_140_906" x1="77.7724" y1="22.1932" x2="75.0726" y2="-3.19928" gradientUnits="userSpaceOnUse">
<stop stop-color="#2AFC61"/>
<stop offset="1" stop-color="#AE69EB"/>
</linearGradient>
<linearGradient id="paint2_linear_140_906" x1="77.7724" y1="22.1932" x2="75.0726" y2="-3.19928" gradientUnits="userSpaceOnUse">
<stop stop-color="#2AFC61"/>
<stop offset="1" stop-color="#AE69EB"/>
</linearGradient>
<linearGradient id="paint3_linear_140_906" x1="77.7724" y1="22.1932" x2="75.0726" y2="-3.19928" gradientUnits="userSpaceOnUse">
<stop stop-color="#2AFC61"/>
<stop offset="1" stop-color="#AE69EB"/>
</linearGradient>
<linearGradient id="paint4_linear_140_906" x1="77.7724" y1="22.1932" x2="75.0726" y2="-3.19928" gradientUnits="userSpaceOnUse">
<stop stop-color="#2AFC61"/>
<stop offset="1" stop-color="#AE69EB"/>
</linearGradient>
</defs>
</svg>
