<svg width="32" height="32" viewBox="0 0 32 32" fill="none" xmlns="http://www.w3.org/2000/svg">
<path d="M11.9988 19.9569C12.8277 19.9569 13.4996 19.285 13.4996 18.4561C13.4996 17.6272 12.8277 16.9553 11.9988 16.9553C11.17 16.9553 10.498 17.6272 10.498 18.4561C10.498 19.285 11.17 19.9569 11.9988 19.9569Z" fill="url(#paint0_linear_140_901)"/>
<path d="M20.0032 19.9569C20.832 19.9569 21.504 19.285 21.504 18.4561C21.504 17.6272 20.832 16.9553 20.0032 16.9553C19.1743 16.9553 18.5024 17.6272 18.5024 18.4561C18.5024 19.285 19.1743 19.9569 20.0032 19.9569Z" fill="url(#paint1_linear_140_901)"/>
<path d="M30.9166 21.6841L26.678 7.53144C26.5079 6.94362 26.0677 6.46461 25.4986 6.24449C24.253 5.73422 22.956 5.3315 21.6428 5.04759C20.641 4.82747 19.6367 5.39403 19.3028 6.37331L18.5749 8.577C17.7219 8.48696 16.8627 8.44318 16.001 8.45069C15.1393 8.44318 14.2801 8.48571 13.4271 8.577L12.6955 6.36456C12.3653 5.39403 11.3597 4.82747 10.3604 5.04634C9.04598 5.3315 7.74778 5.73422 6.50211 6.24449C5.9318 6.46461 5.49281 6.94362 5.32272 7.53144L1.08417 21.6841C0.859049 22.4345 1.09418 23.2537 1.68575 23.7765C3.74561 25.5687 6.53087 26.9319 9.74136 27.7186C9.90395 27.7599 10.0665 27.7799 10.2279 27.7799C10.9708 27.7799 11.6724 27.3572 12.0076 26.6643L13.197 24.3055C14.125 24.4131 15.0605 24.4656 15.9998 24.4594C16.0548 24.4594 16.1086 24.4594 16.1623 24.4594C17.0466 24.4594 17.9283 24.4081 18.8025 24.3068L19.9907 26.6643C20.3258 27.3572 21.0275 27.7799 21.7704 27.7799C21.9317 27.7799 22.0956 27.7599 22.2569 27.7186C25.4661 26.9319 28.2514 25.5687 30.3175 23.7715C30.9053 23.2537 31.1392 22.4333 30.9141 21.6841H30.9166ZM21.7854 25.7751V25.7726L20.8749 23.9691C21.5915 23.8178 22.3019 23.6327 23.0035 23.4125C23.5313 23.2475 23.824 22.6859 23.6589 22.1581C23.4938 21.6303 22.9323 21.3364 22.4045 21.5028C21.3714 21.8267 20.3171 22.0693 19.2515 22.2281C19.234 22.2306 19.2165 22.2319 19.199 22.2357C18.1447 22.3907 17.0778 22.4658 16.0073 22.457H15.9922C14.9179 22.4645 13.8486 22.3895 12.7918 22.2332C12.7855 22.2332 12.778 22.2319 12.7718 22.2306C11.6974 22.0718 10.6368 21.8279 9.59503 21.5015C9.06725 21.3364 8.50569 21.6291 8.3406 22.1569C8.17551 22.6846 8.46942 23.2462 8.99596 23.4113C9.69759 23.6314 10.408 23.8165 11.1246 23.9678L10.2154 25.7713V25.7738C7.3138 25.0622 4.81869 23.849 3.00396 22.2707C3.00021 22.2669 2.99896 22.2619 3.00021 22.2569L7.24001 8.1055C7.24001 8.1055 7.24751 8.103 7.25126 8.10175C8.39188 7.63399 9.58127 7.26379 10.7882 7.0024H10.7919C10.7969 7.0024 10.8007 7.0049 10.8007 7.0024L11.4223 8.88217C10.6056 9.04351 9.79764 9.24862 9.00096 9.49875C8.47317 9.66384 8.18051 10.2254 8.3456 10.7532C8.51069 11.281 9.07225 11.5736 9.60003 11.4085C10.6481 11.0796 11.7162 10.8357 12.798 10.6769C12.8543 10.6731 12.9093 10.6669 12.9656 10.6531C13.9674 10.5131 14.9804 10.4468 15.9972 10.4543H16.0123C17.0291 10.4468 18.0409 10.5131 19.0414 10.6531C19.1002 10.6669 19.1602 10.6744 19.219 10.6781C20.2971 10.8382 21.3627 11.0821 22.4095 11.4098C22.5095 11.4411 22.6096 11.4561 22.7084 11.4561C23.1336 11.4561 23.5288 11.1822 23.6627 10.7544C23.8277 10.2266 23.5338 9.66509 23.0073 9.5C22.2094 9.24987 21.4014 9.04476 20.5847 8.88467L21.2038 7.01366C21.2038 7.01366 21.2126 7.00365 21.2201 7.00615C22.4245 7.26755 23.6139 7.6365 24.7545 8.10425C24.7582 8.1055 24.762 8.10675 24.7645 8.108L29.003 22.2607L29.0043 22.2694C27.1846 23.8528 24.6895 25.0659 21.7879 25.7776L21.7854 25.7751Z" fill="url(#paint2_linear_140_901)"/>
<defs>
<linearGradient id="paint0_linear_140_901" x1="90.1225" y1="22.0331" x2="88.2454" y2="-1.215" gradientUnits="userSpaceOnUse">
<stop stop-color="#2AFC61"/>
<stop offset="1" stop-color="#AE69EB"/>
</linearGradient>
<linearGradient id="paint1_linear_140_901" x1="90.1225" y1="22.0331" x2="88.2454" y2="-1.215" gradientUnits="userSpaceOnUse">
<stop stop-color="#2AFC61"/>
<stop offset="1" stop-color="#AE69EB"/>
</linearGradient>
<linearGradient id="paint2_linear_140_901" x1="90.1225" y1="22.0331" x2="88.2454" y2="-1.215" gradientUnits="userSpaceOnUse">
<stop stop-color="#2AFC61"/>
<stop offset="1" stop-color="#AE69EB"/>
</linearGradient>
</defs>
</svg>
