<svg width="32" height="32" viewBox="0 0 32 32" fill="none" xmlns="http://www.w3.org/2000/svg">
<path d="M10.326 29H10.3173C8.50232 29 7.00611 28.7125 5.87114 28.145C4.95492 27.6863 4.57993 27.195 4.48618 27.0551C4.31743 26.8013 4.27243 26.4838 4.36618 26.1938C4.45993 25.9038 4.68117 25.6713 4.96616 25.5651C4.99866 25.5526 7.94733 24.4201 9.85353 22.2639C9.0373 21.6877 7.85359 20.7002 6.76237 19.219C5.04991 16.8941 3.23746 12.8554 4.33368 6.82186C4.39993 6.45562 4.66492 6.15688 5.01991 6.04563C5.3749 5.93438 5.76239 6.03063 6.02489 6.29312C6.06863 6.33687 10.2298 10.4393 15.3171 11.7642V11.0005C15.3171 9.39929 15.9571 7.88558 17.1183 6.74061C18.2771 5.59689 19.7933 4.97691 21.3932 5.00066C23.5219 5.02566 25.4681 6.18313 26.5181 8.00058H30.3167C30.7217 8.00058 31.0854 8.24432 31.2404 8.61806C31.3954 8.9918 31.3092 9.42179 31.0242 9.70803L27.2493 13.4829C26.8881 17.6628 25.0119 21.5302 21.9432 24.4064C18.7833 27.3688 14.6572 29 10.326 29ZM7.41485 26.6151C8.06233 26.8251 8.9973 27.0001 10.3173 27.0001H10.3248C18.2071 27.0001 24.7756 20.8402 25.2819 12.9742C25.2969 12.7317 25.4006 12.503 25.5731 12.3317L27.903 10.0018H25.9043C25.5069 10.0018 25.1469 9.76678 24.9881 9.40179C24.3594 7.96183 22.9394 7.01935 21.3682 7.00185C21.3507 7.00185 21.332 7.00185 21.3145 7.00185C20.2732 7.00185 19.2845 7.41434 18.5233 8.16557C17.7458 8.9318 17.3183 9.93927 17.3183 11.0017V13.0017C17.3183 13.2954 17.1883 13.5742 16.9646 13.7642C16.7408 13.9542 16.4434 14.0354 16.1534 13.9879C11.811 13.2642 8.02983 10.6143 6.05738 8.9943C5.75489 12.4992 6.53112 15.5329 8.37357 18.0328C9.96228 20.189 11.7472 21.0977 11.766 21.1065C12.0222 21.2352 12.2122 21.4665 12.2847 21.7439C12.3572 22.0214 12.3097 22.3164 12.1497 22.5552C10.8598 24.4901 8.85481 25.8338 7.41485 26.6151Z" fill="url(#paint0_linear_140_904)"/>
<defs>
<linearGradient id="paint0_linear_140_904" x1="85.1548" y1="22.9455" x2="82.8718" y2="-1.49362" gradientUnits="userSpaceOnUse">
<stop stop-color="#2AFC61"/>
<stop offset="1" stop-color="#AE69EB"/>
</linearGradient>
</defs>
</svg>
