<svg width="32" height="32" viewBox="0 0 32 32" fill="none" xmlns="http://www.w3.org/2000/svg">
<path d="M12.451 29.4987C12.0766 29.5014 11.7718 29.2005 11.7708 28.826C11.7696 28.3665 11.7684 27.7502 11.7672 27.1576L11.767 27.0193C11.766 26.5353 11.3364 26.1677 10.8526 26.1819C7.04503 26.294 6.08784 23.5353 6.07647 23.5037C5.44213 21.8955 4.57483 21.4357 4.53748 21.4166L4.45326 21.3677C4.13881 21.1531 3.30479 20.5819 3.54182 19.8308C3.75575 19.1537 4.58502 19.0837 4.96196 19.0959C7.04972 19.2419 8.1065 21.1185 8.14997 21.198C9.09625 22.8197 10.4849 22.8524 11.5188 22.5698C11.7539 22.5055 11.922 22.2893 11.9895 22.0552C12.1219 21.5964 11.8592 21.0907 11.3958 20.9755C8.2995 20.2058 5.1596 18.1845 5.1596 12.275C5.1596 10.6348 5.62815 9.16938 6.5553 7.90607C6.71315 7.69099 6.76787 7.41693 6.71095 7.15627C6.51344 6.25192 6.41297 4.77137 7.12035 2.97452C7.19503 2.78482 7.35127 2.63841 7.54551 2.57652C7.81909 2.48643 9.2745 2.17346 12.2466 4.03856C12.4368 4.15798 12.6672 4.19613 12.886 4.14528C14.0938 3.86463 15.3632 3.71965 16.6688 3.71345C17.9808 3.71965 19.2521 3.86468 20.4623 4.14542C20.6812 4.19619 20.9115 4.15791 21.1018 4.03839C24.071 2.17305 25.5232 2.48972 25.7975 2.57652C25.9911 2.63879 26.1471 2.78465 26.222 2.97384C26.9323 4.77018 26.8322 6.25118 26.6347 7.15608C26.5778 7.41684 26.6327 7.69097 26.7906 7.90612C27.7157 9.16617 28.1841 10.6321 28.1841 12.275C28.1841 18.1032 25.128 20.1456 22.0683 20.9333C21.5422 21.0687 21.2482 21.6628 21.3857 22.1883C21.5149 22.6825 21.5826 23.2244 21.5826 23.7971C21.5826 24.7377 21.5793 27.4433 21.5752 28.8256C21.574 29.2007 21.2683 29.5014 20.8932 29.4987C20.5181 29.4961 20.2157 29.1912 20.2168 28.8161C20.221 27.4357 20.2242 24.7356 20.2242 23.7964C20.2242 22.1379 19.5838 21.4044 19.3073 21.1653C18.8593 20.7777 19.088 20.0423 19.6768 19.9768C23.2119 19.5842 26.8251 18.3611 26.8251 12.2744C26.8251 10.6919 26.2973 9.31251 25.2562 8.1749C25.0784 7.98096 25.0282 7.70096 25.1285 7.4577C25.2293 7.2141 25.6355 6.0794 25.2648 4.45794C25.1839 4.10399 24.8447 3.87595 24.4918 3.96138C23.8269 4.12235 22.7782 4.52848 21.3068 5.52615C21.1418 5.63742 20.9356 5.67153 20.7438 5.61852C19.4785 5.26671 18.0692 5.0779 16.6681 5.07111C15.2744 5.0779 13.8672 5.26671 12.604 5.61852C12.4122 5.67153 12.2064 5.63761 12.0416 5.52615C10.5677 4.52825 9.51669 4.12134 8.85021 3.96005C8.49714 3.87461 8.15791 4.1029 8.07722 4.45709C7.7076 6.07945 8.11433 7.21411 8.21517 7.4577C8.31548 7.70101 8.26579 7.98072 8.08817 8.1749C7.04497 9.31659 6.51657 10.696 6.51657 12.2744C6.51657 18.3583 10.123 19.589 13.6506 19.9904C14.2368 20.057 14.4646 20.7884 14.02 21.1762C13.7674 21.3969 13.3205 21.9314 13.1683 23.0283C13.1367 23.2602 12.9873 23.4595 12.7737 23.5553C11.8766 23.9574 8.80809 25.0237 6.96822 21.8676C6.87121 21.7059 6.74858 21.8219 6.84364 21.9847C7.02068 22.288 7.19367 22.6385 7.35263 23.0426C7.39745 23.1716 8.27426 25.5025 12.297 24.6311C12.7186 24.5396 13.1173 24.86 13.1186 25.2914L13.1242 27.1549C13.1254 27.7442 13.1266 28.3571 13.1278 28.815C13.1287 29.19 12.8261 29.4961 12.451 29.4987Z" fill="url(#paint0_linear_140_902)" stroke="url(#paint1_linear_140_902)" stroke-width="0.3" stroke-linejoin="round"/>
<defs>
<linearGradient id="paint0_linear_140_902" x1="76.8338" y1="22.6913" x2="73.6506" y2="-4.67597" gradientUnits="userSpaceOnUse">
<stop stop-color="#2AFC61"/>
<stop offset="1" stop-color="#AE69EB"/>
</linearGradient>
<linearGradient id="paint1_linear_140_902" x1="76.8338" y1="22.6913" x2="73.6506" y2="-4.67597" gradientUnits="userSpaceOnUse">
<stop stop-color="#2AFC61"/>
<stop offset="1" stop-color="#AE69EB"/>
</linearGradient>
</defs>
</svg>
